<svg xmlns="http://www.w3.org/2000/svg" width="32" height="32" fill="none" viewBox="0 0 32 32" id="bowling">
  <g filter="url(#filter0_i_18_2431)">
    <path fill="#DAD4E3" d="M26.5448 15.6994C26.5448 14.0694 26.9348 12.4594 27.5848 10.9694C27.7748 10.5294 27.8848 10.0494 27.8848 9.53941C27.8848 7.46941 26.1348 5.80941 24.0348 5.95941C22.2548 6.07941 20.8148 7.52941 20.7048 9.30941C20.6648 9.91941 20.7848 10.4994 21.0148 11.0194C21.6548 12.4294 22.0348 13.9494 22.0348 15.4994V15.6994C22.0348 16.6194 21.6548 17.4994 20.9948 18.1394L20.7048 18.4194C17.9248 21.0794 17.8948 25.5094 20.6248 28.2194L22.1348 29.7094C22.2648 29.8394 22.4548 29.9194 22.6448 29.9194H25.9648C26.1548 29.9194 26.3348 29.8494 26.4748 29.7094L27.9848 28.2094C30.7248 25.4994 30.6848 21.0694 27.9048 18.4094L27.6048 18.1294C26.9148 17.4994 26.5448 16.6194 26.5448 15.6994Z"></path>
    <path fill="url(#paint0_radial_18_2431)" d="M26.5448 15.6994C26.5448 14.0694 26.9348 12.4594 27.5848 10.9694C27.7748 10.5294 27.8848 10.0494 27.8848 9.53941C27.8848 7.46941 26.1348 5.80941 24.0348 5.95941C22.2548 6.07941 20.8148 7.52941 20.7048 9.30941C20.6648 9.91941 20.7848 10.4994 21.0148 11.0194C21.6548 12.4294 22.0348 13.9494 22.0348 15.4994V15.6994C22.0348 16.6194 21.6548 17.4994 20.9948 18.1394L20.7048 18.4194C17.9248 21.0794 17.8948 25.5094 20.6248 28.2194L22.1348 29.7094C22.2648 29.8394 22.4548 29.9194 22.6448 29.9194H25.9648C26.1548 29.9194 26.3348 29.8494 26.4748 29.7094L27.9848 28.2094C30.7248 25.4994 30.6848 21.0694 27.9048 18.4094L27.6048 18.1294C26.9148 17.4994 26.5448 16.6194 26.5448 15.6994Z"></path>
    <path fill="url(#paint1_radial_18_2431)" d="M26.5448 15.6994C26.5448 14.0694 26.9348 12.4594 27.5848 10.9694C27.7748 10.5294 27.8848 10.0494 27.8848 9.53941C27.8848 7.46941 26.1348 5.80941 24.0348 5.95941C22.2548 6.07941 20.8148 7.52941 20.7048 9.30941C20.6648 9.91941 20.7848 10.4994 21.0148 11.0194C21.6548 12.4294 22.0348 13.9494 22.0348 15.4994V15.6994C22.0348 16.6194 21.6548 17.4994 20.9948 18.1394L20.7048 18.4194C17.9248 21.0794 17.8948 25.5094 20.6248 28.2194L22.1348 29.7094C22.2648 29.8394 22.4548 29.9194 22.6448 29.9194H25.9648C26.1548 29.9194 26.3348 29.8494 26.4748 29.7094L27.9848 28.2094C30.7248 25.4994 30.6848 21.0694 27.9048 18.4094L27.6048 18.1294C26.9148 17.4994 26.5448 16.6194 26.5448 15.6994Z"></path>
  </g>
  <path fill="url(#paint2_radial_18_2431)" d="M26.5448 15.6994C26.5448 14.0694 26.9348 12.4594 27.5848 10.9694C27.7748 10.5294 27.8848 10.0494 27.8848 9.53941C27.8848 7.46941 26.1348 5.80941 24.0348 5.95941C22.2548 6.07941 20.8148 7.52941 20.7048 9.30941C20.6648 9.91941 20.7848 10.4994 21.0148 11.0194C21.6548 12.4294 22.0348 13.9494 22.0348 15.4994V15.6994C22.0348 16.6194 21.6548 17.4994 20.9948 18.1394L20.7048 18.4194C17.9248 21.0794 17.8948 25.5094 20.6248 28.2194L22.1348 29.7094C22.2648 29.8394 22.4548 29.9194 22.6448 29.9194H25.9648C26.1548 29.9194 26.3348 29.8494 26.4748 29.7094L27.9848 28.2094C30.7248 25.4994 30.6848 21.0694 27.9048 18.4094L27.6048 18.1294C26.9148 17.4994 26.5448 16.6194 26.5448 15.6994Z"></path>
  <path fill="url(#paint3_linear_18_2431)" d="M26.5448 15.6994C26.5448 14.0694 26.9348 12.4594 27.5848 10.9694C27.7748 10.5294 27.8848 10.0494 27.8848 9.53941C27.8848 7.46941 26.1348 5.80941 24.0348 5.95941C22.2548 6.07941 20.8148 7.52941 20.7048 9.30941C20.6648 9.91941 20.7848 10.4994 21.0148 11.0194C21.6548 12.4294 22.0348 13.9494 22.0348 15.4994V15.6994C22.0348 16.6194 21.6548 17.4994 20.9948 18.1394L20.7048 18.4194C17.9248 21.0794 17.8948 25.5094 20.6248 28.2194L22.1348 29.7094C22.2648 29.8394 22.4548 29.9194 22.6448 29.9194H25.9648C26.1548 29.9194 26.3348 29.8494 26.4748 29.7094L27.9848 28.2094C30.7248 25.4994 30.6848 21.0694 27.9048 18.4094L27.6048 18.1294C26.9148 17.4994 26.5448 16.6194 26.5448 15.6994Z"></path>
  <path fill="url(#paint4_radial_18_2431)" d="M26.5448 15.6994C26.5448 14.0694 26.9348 12.4594 27.5848 10.9694C27.7748 10.5294 27.8848 10.0494 27.8848 9.53941C27.8848 7.46941 26.1348 5.80941 24.0348 5.95941C22.2548 6.07941 20.8148 7.52941 20.7048 9.30941C20.6648 9.91941 20.7848 10.4994 21.0148 11.0194C21.6548 12.4294 22.0348 13.9494 22.0348 15.4994V15.6994C22.0348 16.6194 21.6548 17.4994 20.9948 18.1394L20.7048 18.4194C17.9248 21.0794 17.8948 25.5094 20.6248 28.2194L22.1348 29.7094C22.2648 29.8394 22.4548 29.9194 22.6448 29.9194H25.9648C26.1548 29.9194 26.3348 29.8494 26.4748 29.7094L27.9848 28.2094C30.7248 25.4994 30.6848 21.0694 27.9048 18.4094L27.6048 18.1294C26.9148 17.4994 26.5448 16.6194 26.5448 15.6994Z"></path>
  <path fill="url(#paint5_radial_18_2431)" d="M26.5448 15.6994C26.5448 14.0694 26.9348 12.4594 27.5848 10.9694C27.7748 10.5294 27.8848 10.0494 27.8848 9.53941C27.8848 7.46941 26.1348 5.80941 24.0348 5.95941C22.2548 6.07941 20.8148 7.52941 20.7048 9.30941C20.6648 9.91941 20.7848 10.4994 21.0148 11.0194C21.6548 12.4294 22.0348 13.9494 22.0348 15.4994V15.6994C22.0348 16.6194 21.6548 17.4994 20.9948 18.1394L20.7048 18.4194C17.9248 21.0794 17.8948 25.5094 20.6248 28.2194L22.1348 29.7094C22.2648 29.8394 22.4548 29.9194 22.6448 29.9194H25.9648C26.1548 29.9194 26.3348 29.8494 26.4748 29.7094L27.9848 28.2094C30.7248 25.4994 30.6848 21.0694 27.9048 18.4094L27.6048 18.1294C26.9148 17.4994 26.5448 16.6194 26.5448 15.6994Z"></path>
  <path fill="url(#paint6_radial_18_2431)" d="M26.5448 15.6994C26.5448 14.0694 26.9348 12.4594 27.5848 10.9694C27.7748 10.5294 27.8848 10.0494 27.8848 9.53941C27.8848 7.46941 26.1348 5.80941 24.0348 5.95941C22.2548 6.07941 20.8148 7.52941 20.7048 9.30941C20.6648 9.91941 20.7848 10.4994 21.0148 11.0194C21.6548 12.4294 22.0348 13.9494 22.0348 15.4994V15.6994C22.0348 16.6194 21.6548 17.4994 20.9948 18.1394L20.7048 18.4194C17.9248 21.0794 17.8948 25.5094 20.6248 28.2194L22.1348 29.7094C22.2648 29.8394 22.4548 29.9194 22.6448 29.9194H25.9648C26.1548 29.9194 26.3348 29.8494 26.4748 29.7094L27.9848 28.2094C30.7248 25.4994 30.6848 21.0694 27.9048 18.4094L27.6048 18.1294C26.9148 17.4994 26.5448 16.6194 26.5448 15.6994Z"></path>
  <path fill="url(#paint7_linear_18_2431)" d="M26.8848 13.0394H21.7148C21.8248 13.4794 21.9148 13.9294 21.9648 14.3794H26.6348C26.6848 13.9294 26.7748 13.4894 26.8848 13.0394Z"></path>
  <path fill="url(#paint8_linear_18_2431)" d="M26.7548 16.8294C26.6248 16.4694 26.5448 16.0894 26.5448 15.6894C26.5448 15.6194 26.5548 15.5594 26.5548 15.4894H22.0248V15.6894C22.0248 16.0794 21.9448 16.4594 21.8148 16.8294H26.7548Z"></path>
  <g filter="url(#filter1_i_18_2431)">
    <path fill="#DAD4E3" d="M18.6148 15.6994C18.6148 14.0694 19.0048 12.4594 19.6548 10.9694C19.8448 10.5294 19.9548 10.0494 19.9548 9.53941C19.9548 7.46941 18.2048 5.80941 16.1048 5.95941C14.3248 6.07941 12.8848 7.52941 12.7748 9.30941C12.7348 9.91941 12.8548 10.4994 13.0848 11.0194C13.7248 12.4294 14.1048 13.9494 14.1048 15.4994V15.6994C14.1048 16.6194 13.7248 17.4994 13.0648 18.1394L12.7748 18.4194C9.99479 21.0794 9.96479 25.5094 12.6948 28.2194L14.2048 29.7094C14.3348 29.8394 14.5248 29.9194 14.7148 29.9194H18.0348C18.2248 29.9194 18.4048 29.8494 18.5448 29.7094L20.0548 28.2094C22.7948 25.4994 22.7548 21.0694 19.9748 18.4094L19.6748 18.1294C18.9948 17.4994 18.6148 16.6194 18.6148 15.6994Z"></path>
    <path fill="url(#paint9_radial_18_2431)" d="M18.6148 15.6994C18.6148 14.0694 19.0048 12.4594 19.6548 10.9694C19.8448 10.5294 19.9548 10.0494 19.9548 9.53941C19.9548 7.46941 18.2048 5.80941 16.1048 5.95941C14.3248 6.07941 12.8848 7.52941 12.7748 9.30941C12.7348 9.91941 12.8548 10.4994 13.0848 11.0194C13.7248 12.4294 14.1048 13.9494 14.1048 15.4994V15.6994C14.1048 16.6194 13.7248 17.4994 13.0648 18.1394L12.7748 18.4194C9.99479 21.0794 9.96479 25.5094 12.6948 28.2194L14.2048 29.7094C14.3348 29.8394 14.5248 29.9194 14.7148 29.9194H18.0348C18.2248 29.9194 18.4048 29.8494 18.5448 29.7094L20.0548 28.2094C22.7948 25.4994 22.7548 21.0694 19.9748 18.4094L19.6748 18.1294C18.9948 17.4994 18.6148 16.6194 18.6148 15.6994Z"></path>
    <path fill="url(#paint10_radial_18_2431)" d="M18.6148 15.6994C18.6148 14.0694 19.0048 12.4594 19.6548 10.9694C19.8448 10.5294 19.9548 10.0494 19.9548 9.53941C19.9548 7.46941 18.2048 5.80941 16.1048 5.95941C14.3248 6.07941 12.8848 7.52941 12.7748 9.30941C12.7348 9.91941 12.8548 10.4994 13.0848 11.0194C13.7248 12.4294 14.1048 13.9494 14.1048 15.4994V15.6994C14.1048 16.6194 13.7248 17.4994 13.0648 18.1394L12.7748 18.4194C9.99479 21.0794 9.96479 25.5094 12.6948 28.2194L14.2048 29.7094C14.3348 29.8394 14.5248 29.9194 14.7148 29.9194H18.0348C18.2248 29.9194 18.4048 29.8494 18.5448 29.7094L20.0548 28.2094C22.7948 25.4994 22.7548 21.0694 19.9748 18.4094L19.6748 18.1294C18.9948 17.4994 18.6148 16.6194 18.6148 15.6994Z"></path>
  </g>
  <path fill="url(#paint11_radial_18_2431)" d="M18.6148 15.6994C18.6148 14.0694 19.0048 12.4594 19.6548 10.9694C19.8448 10.5294 19.9548 10.0494 19.9548 9.53941C19.9548 7.46941 18.2048 5.80941 16.1048 5.95941C14.3248 6.07941 12.8848 7.52941 12.7748 9.30941C12.7348 9.91941 12.8548 10.4994 13.0848 11.0194C13.7248 12.4294 14.1048 13.9494 14.1048 15.4994V15.6994C14.1048 16.6194 13.7248 17.4994 13.0648 18.1394L12.7748 18.4194C9.99479 21.0794 9.96479 25.5094 12.6948 28.2194L14.2048 29.7094C14.3348 29.8394 14.5248 29.9194 14.7148 29.9194H18.0348C18.2248 29.9194 18.4048 29.8494 18.5448 29.7094L20.0548 28.2094C22.7948 25.4994 22.7548 21.0694 19.9748 18.4094L19.6748 18.1294C18.9948 17.4994 18.6148 16.6194 18.6148 15.6994Z"></path>
  <path fill="url(#paint12_linear_18_2431)" d="M18.6148 15.6994C18.6148 14.0694 19.0048 12.4594 19.6548 10.9694C19.8448 10.5294 19.9548 10.0494 19.9548 9.53941C19.9548 7.46941 18.2048 5.80941 16.1048 5.95941C14.3248 6.07941 12.8848 7.52941 12.7748 9.30941C12.7348 9.91941 12.8548 10.4994 13.0848 11.0194C13.7248 12.4294 14.1048 13.9494 14.1048 15.4994V15.6994C14.1048 16.6194 13.7248 17.4994 13.0648 18.1394L12.7748 18.4194C9.99479 21.0794 9.96479 25.5094 12.6948 28.2194L14.2048 29.7094C14.3348 29.8394 14.5248 29.9194 14.7148 29.9194H18.0348C18.2248 29.9194 18.4048 29.8494 18.5448 29.7094L20.0548 28.2094C22.7948 25.4994 22.7548 21.0694 19.9748 18.4094L19.6748 18.1294C18.9948 17.4994 18.6148 16.6194 18.6148 15.6994Z"></path>
  <path fill="url(#paint13_radial_18_2431)" d="M18.6148 15.6994C18.6148 14.0694 19.0048 12.4594 19.6548 10.9694C19.8448 10.5294 19.9548 10.0494 19.9548 9.53941C19.9548 7.46941 18.2048 5.80941 16.1048 5.95941C14.3248 6.07941 12.8848 7.52941 12.7748 9.30941C12.7348 9.91941 12.8548 10.4994 13.0848 11.0194C13.7248 12.4294 14.1048 13.9494 14.1048 15.4994V15.6994C14.1048 16.6194 13.7248 17.4994 13.0648 18.1394L12.7748 18.4194C9.99479 21.0794 9.96479 25.5094 12.6948 28.2194L14.2048 29.7094C14.3348 29.8394 14.5248 29.9194 14.7148 29.9194H18.0348C18.2248 29.9194 18.4048 29.8494 18.5448 29.7094L20.0548 28.2094C22.7948 25.4994 22.7548 21.0694 19.9748 18.4094L19.6748 18.1294C18.9948 17.4994 18.6148 16.6194 18.6148 15.6994Z"></path>
  <path fill="url(#paint14_radial_18_2431)" d="M18.6148 15.6994C18.6148 14.0694 19.0048 12.4594 19.6548 10.9694C19.8448 10.5294 19.9548 10.0494 19.9548 9.53941C19.9548 7.46941 18.2048 5.80941 16.1048 5.95941C14.3248 6.07941 12.8848 7.52941 12.7748 9.30941C12.7348 9.91941 12.8548 10.4994 13.0848 11.0194C13.7248 12.4294 14.1048 13.9494 14.1048 15.4994V15.6994C14.1048 16.6194 13.7248 17.4994 13.0648 18.1394L12.7748 18.4194C9.99479 21.0794 9.96479 25.5094 12.6948 28.2194L14.2048 29.7094C14.3348 29.8394 14.5248 29.9194 14.7148 29.9194H18.0348C18.2248 29.9194 18.4048 29.8494 18.5448 29.7094L20.0548 28.2094C22.7948 25.4994 22.7548 21.0694 19.9748 18.4094L19.6748 18.1294C18.9948 17.4994 18.6148 16.6194 18.6148 15.6994Z"></path>
  <path fill="url(#paint15_linear_18_2431)" d="M18.9549 13.0394H13.7849C13.8949 13.4794 13.9849 13.9294 14.0349 14.3794H18.7049C18.7649 13.9294 18.8449 13.4894 18.9549 13.0394Z"></path>
  <path fill="url(#paint16_linear_18_2431)" d="M18.8348 16.8294C18.7048 16.4694 18.6248 16.0894 18.6248 15.6894C18.6248 15.6194 18.6348 15.5594 18.6348 15.4894H14.1048V15.6894C14.1048 16.0794 14.0248 16.4594 13.8948 16.8294H18.8348Z"></path>
  <g filter="url(#filter2_ii_18_2431)">
    <path fill="url(#paint17_radial_18_2431)" d="M9.00486 29.9694C12.8819 29.9694 16.0249 26.8265 16.0249 22.9494C16.0249 19.0724 12.8819 15.9294 9.00486 15.9294C5.12782 15.9294 1.98486 19.0724 1.98486 22.9494C1.98486 26.8265 5.12782 29.9694 9.00486 29.9694Z"></path>
  </g>
  <path fill="url(#paint18_radial_18_2431)" d="M7.16479 22.6494C7.78887 22.6494 8.29479 22.1435 8.29479 21.5194C8.29479 20.8953 7.78887 20.3894 7.16479 20.3894C6.54071 20.3894 6.03479 20.8953 6.03479 21.5194C6.03479 22.1435 6.54071 22.6494 7.16479 22.6494Z"></path>
  <path fill="url(#paint19_radial_18_2431)" d="M10.8448 22.6494C11.4689 22.6494 11.9748 22.1435 11.9748 21.5194C11.9748 20.8953 11.4689 20.3894 10.8448 20.3894C10.2208 20.3894 9.71484 20.8953 9.71484 21.5194C9.71484 22.1435 10.2208 22.6494 10.8448 22.6494Z"></path>
  <path fill="url(#paint20_radial_18_2431)" d="M9.09484 19.8194C9.71893 19.8194 10.2248 19.3135 10.2248 18.6894C10.2248 18.0653 9.71893 17.5594 9.09484 17.5594C8.47076 17.5594 7.96484 18.0653 7.96484 18.6894C7.96484 19.3135 8.47076 19.8194 9.09484 19.8194Z"></path>
  <defs>
    <radialGradient id="paint0_radial_18_2431" cx="0" cy="0" r="1" gradientTransform="matrix(-4.8297 2.67495 -2.18172 -3.93917 27.872 7.594)" gradientUnits="userSpaceOnUse">
      <stop stop-color="#FAF9FD"></stop>
      <stop offset="1" stop-color="#FAF9FD" stop-opacity="0"></stop>
    </radialGradient>
    <radialGradient id="paint1_radial_18_2431" cx="0" cy="0" r="1" gradientTransform="matrix(-5.70836 1.48606 -2.00439 -7.69937 30.015 20.448)" gradientUnits="userSpaceOnUse">
      <stop offset=".162" stop-color="#FAF9FD"></stop>
      <stop offset="1" stop-color="#FAF9FD" stop-opacity="0"></stop>
    </radialGradient>
    <radialGradient id="paint2_radial_18_2431" cx="0" cy="0" r="1" gradientTransform="rotate(-27.646 72.018 -23.556)scale(9.22897 9.40675)" gradientUnits="userSpaceOnUse">
      <stop offset=".135" stop-color="#B07ED9"></stop>
      <stop offset="1" stop-color="#B07ED9" stop-opacity="0"></stop>
    </radialGradient>
    <radialGradient id="paint4_radial_18_2431" cx="0" cy="0" r="1" gradientTransform="matrix(-3.66592 -1.62206 1.15135 -2.60209 26.808 13.209)" gradientUnits="userSpaceOnUse">
      <stop stop-color="#DDD1EB"></stop>
      <stop offset="1" stop-color="#DDD1EB" stop-opacity="0"></stop>
    </radialGradient>
    <radialGradient id="paint5_radial_18_2431" cx="0" cy="0" r="1" gradientTransform="matrix(2.94727 .70176 -1.04256 4.37856 19.624 26.17)" gradientUnits="userSpaceOnUse">
      <stop offset=".491" stop-color="#B192CD"></stop>
      <stop offset="1" stop-color="#B192CD" stop-opacity="0"></stop>
    </radialGradient>
    <radialGradient id="paint6_radial_18_2431" cx="0" cy="0" r="1" gradientTransform="matrix(-4.36963 2.45603 -2.00317 -3.56393 28.676 6.872)" gradientUnits="userSpaceOnUse">
      <stop stop-color="#FAF9FD"></stop>
      <stop offset="1" stop-color="#FAF9FD" stop-opacity="0"></stop>
    </radialGradient>
    <radialGradient id="paint9_radial_18_2431" cx="0" cy="0" r="1" gradientTransform="matrix(-4.8297 2.67495 -2.18172 -3.93917 19.942 7.594)" gradientUnits="userSpaceOnUse">
      <stop stop-color="#FAF9FD"></stop>
      <stop offset="1" stop-color="#FAF9FD" stop-opacity="0"></stop>
    </radialGradient>
    <radialGradient id="paint10_radial_18_2431" cx="0" cy="0" r="1" gradientTransform="matrix(-5.70836 1.48606 -2.00439 -7.69937 22.085 20.448)" gradientUnits="userSpaceOnUse">
      <stop offset=".162" stop-color="#FAF9FD"></stop>
      <stop offset="1" stop-color="#FAF9FD" stop-opacity="0"></stop>
    </radialGradient>
    <radialGradient id="paint11_radial_18_2431" cx="0" cy="0" r="1" gradientTransform="rotate(-27.646 68.053 -7.441)scale(9.22897 9.40675)" gradientUnits="userSpaceOnUse">
      <stop offset=".135" stop-color="#A87AD0"></stop>
      <stop offset="1" stop-color="#A87AD0" stop-opacity="0"></stop>
    </radialGradient>
    <radialGradient id="paint13_radial_18_2431" cx="0" cy="0" r="1" gradientTransform="matrix(-3.66592 -1.62206 1.15135 -2.60209 18.878 13.209)" gradientUnits="userSpaceOnUse">
      <stop stop-color="#DDD1EB"></stop>
      <stop offset="1" stop-color="#DDD1EB" stop-opacity="0"></stop>
    </radialGradient>
    <radialGradient id="paint14_radial_18_2431" cx="0" cy="0" r="1" gradientTransform="matrix(-4.36963 2.45603 -2.00317 -3.56393 20.746 6.872)" gradientUnits="userSpaceOnUse">
      <stop stop-color="#FAF9FD"></stop>
      <stop offset="1" stop-color="#FAF9FD" stop-opacity="0"></stop>
    </radialGradient>
    <radialGradient id="paint17_radial_18_2431" cx="0" cy="0" r="1" gradientTransform="rotate(129.245 2.09 12.507)scale(12.8668)" gradientUnits="userSpaceOnUse">
      <stop stop-color="#7D79C2"></stop>
      <stop offset="1" stop-color="#492D6C"></stop>
    </radialGradient>
    <radialGradient id="paint18_radial_18_2431" cx="0" cy="0" r="1" gradientTransform="matrix(1.58379 -1.30223 1.2219 1.4861 6.436 22.308)" gradientUnits="userSpaceOnUse">
      <stop stop-color="#3F2B52"></stop>
      <stop offset="1" stop-color="#291737"></stop>
    </radialGradient>
    <radialGradient id="paint19_radial_18_2431" cx="0" cy="0" r="1" gradientTransform="matrix(1.58379 -1.30223 1.2219 1.4861 10.116 22.308)" gradientUnits="userSpaceOnUse">
      <stop stop-color="#52336E"></stop>
      <stop offset="1" stop-color="#311644"></stop>
    </radialGradient>
    <radialGradient id="paint20_radial_18_2431" cx="0" cy="0" r="1" gradientTransform="matrix(1.58379 -1.30223 1.2219 1.4861 8.366 19.478)" gradientUnits="userSpaceOnUse">
      <stop stop-color="#3A224C"></stop>
      <stop offset="1" stop-color="#25112E"></stop>
    </radialGradient>
    <linearGradient id="paint3_linear_18_2431" x1="24.804" x2="24.804" y1="30.035" y2="29.634" gradientUnits="userSpaceOnUse">
      <stop stop-color="#AA7DD2"></stop>
      <stop offset="1" stop-color="#AA7DD2" stop-opacity="0"></stop>
    </linearGradient>
    <linearGradient id="paint7_linear_18_2431" x1="23.01" x2="26.095" y1="14.379" y2="14.379" gradientUnits="userSpaceOnUse">
      <stop stop-color="#D72B4D"></stop>
      <stop offset="1" stop-color="#FF5694"></stop>
    </linearGradient>
    <linearGradient id="paint8_linear_18_2431" x1="23.052" x2="26" y1="16.829" y2="16.829" gradientUnits="userSpaceOnUse">
      <stop stop-color="#D8324D"></stop>
      <stop offset="1" stop-color="#FF5694"></stop>
    </linearGradient>
    <linearGradient id="paint12_linear_18_2431" x1="16.874" x2="16.874" y1="30.035" y2="29.634" gradientUnits="userSpaceOnUse">
      <stop stop-color="#AA7DD2"></stop>
      <stop offset="1" stop-color="#AA7DD2" stop-opacity="0"></stop>
    </linearGradient>
    <linearGradient id="paint15_linear_18_2431" x1="14.431" x2="18.571" y1="13.709" y2="13.709" gradientUnits="userSpaceOnUse">
      <stop stop-color="#BC3246"></stop>
      <stop offset="1" stop-color="#FE3A86"></stop>
    </linearGradient>
    <linearGradient id="paint16_linear_18_2431" x1="15.133" x2="18.08" y1="16.829" y2="16.829" gradientUnits="userSpaceOnUse">
      <stop stop-color="#CC314C"></stop>
      <stop offset="1" stop-color="#FF5694"></stop>
    </linearGradient>
    <filter id="filter0_i_18_2431" width="12.417" height="23.969" x="18.598" y="5.95" color-interpolation-filters="sRGB" filterUnits="userSpaceOnUse">
      <feFlood flood-opacity="0" result="BackgroundImageFix"></feFlood>
      <feBlend in="SourceGraphic" in2="BackgroundImageFix" result="shape"></feBlend>
      <feColorMatrix in="SourceAlpha" result="hardAlpha" values="0 0 0 0 0 0 0 0 0 0 0 0 0 0 0 0 0 0 127 0"></feColorMatrix>
      <feOffset dx="1"></feOffset>
      <feGaussianBlur stdDeviation="1"></feGaussianBlur>
      <feComposite in2="hardAlpha" k2="-1" k3="1" operator="arithmetic"></feComposite>
      <feColorMatrix values="0 0 0 0 0.690196 0 0 0 0 0.686275 0 0 0 0 0.698039 0 0 0 1 0"></feColorMatrix>
      <feBlend in2="shape" result="effect1_innerShadow_18_2431"></feBlend>
    </filter>
    <filter id="filter1_i_18_2431" width="12.417" height="23.969" x="10.668" y="5.95" color-interpolation-filters="sRGB" filterUnits="userSpaceOnUse">
      <feFlood flood-opacity="0" result="BackgroundImageFix"></feFlood>
      <feBlend in="SourceGraphic" in2="BackgroundImageFix" result="shape"></feBlend>
      <feColorMatrix in="SourceAlpha" result="hardAlpha" values="0 0 0 0 0 0 0 0 0 0 0 0 0 0 0 0 0 0 127 0"></feColorMatrix>
      <feOffset dx="1"></feOffset>
      <feGaussianBlur stdDeviation="1"></feGaussianBlur>
      <feComposite in2="hardAlpha" k2="-1" k3="1" operator="arithmetic"></feComposite>
      <feColorMatrix values="0 0 0 0 0.690196 0 0 0 0 0.686275 0 0 0 0 0.698039 0 0 0 1 0"></feColorMatrix>
      <feBlend in2="shape" result="effect1_innerShadow_18_2431"></feBlend>
    </filter>
    <filter id="filter2_ii_18_2431" width="14.54" height="14.29" x="1.735" y="15.679" color-interpolation-filters="sRGB" filterUnits="userSpaceOnUse">
      <feFlood flood-opacity="0" result="BackgroundImageFix"></feFlood>
      <feBlend in="SourceGraphic" in2="BackgroundImageFix" result="shape"></feBlend>
      <feColorMatrix in="SourceAlpha" result="hardAlpha" values="0 0 0 0 0 0 0 0 0 0 0 0 0 0 0 0 0 0 127 0"></feColorMatrix>
      <feOffset dx="-.25"></feOffset>
      <feGaussianBlur stdDeviation=".5"></feGaussianBlur>
      <feComposite in2="hardAlpha" k2="-1" k3="1" operator="arithmetic"></feComposite>
      <feColorMatrix values="0 0 0 0 0.537255 0 0 0 0 0.521569 0 0 0 0 0.780392 0 0 0 1 0"></feColorMatrix>
      <feBlend in2="shape" result="effect1_innerShadow_18_2431"></feBlend>
      <feColorMatrix in="SourceAlpha" result="hardAlpha" values="0 0 0 0 0 0 0 0 0 0 0 0 0 0 0 0 0 0 127 0"></feColorMatrix>
      <feOffset dx=".25" dy="-.25"></feOffset>
      <feGaussianBlur stdDeviation=".25"></feGaussianBlur>
      <feComposite in2="hardAlpha" k2="-1" k3="1" operator="arithmetic"></feComposite>
      <feColorMatrix values="0 0 0 0 0.376471 0 0 0 0 0.215686 0 0 0 0 0.521569 0 0 0 1 0"></feColorMatrix>
      <feBlend in2="effect1_innerShadow_18_2431" result="effect2_innerShadow_18_2431"></feBlend>
    </filter>
  </defs>
</svg>
